Coordinates
version=1
nRows=16
nColumns=40
inDegrees=yes

Units are S.I. units (second, meters, Newtons, ...)
Angles are in degrees.

endheader
time	pelvis_tilt	pelvis_list	pelvis_rotation	pelvis_tx	pelvis_ty	pelvis_tz	hip_flexion_r	hip_adduction_r	hip_rotation_r	knee_angle_r	knee_angle_r_beta	ankle_angle_r	subtalar_angle_r	mtp_angle_r	hip_flexion_l	hip_adduction_l	hip_rotation_l	knee_angle_l	knee_angle_l_beta	ankle_angle_l	subtalar_angle_l	mtp_angle_l	lumbar_extension	lumbar_bending	lumbar_rotation	arm_flex_r	arm_add_r	arm_rot_r	elbow_flex_r	pro_sup_r	wrist_flex_r	wrist_dev_r	arm_flex_l	arm_add_l	arm_rot_l	elbow_flex_l	pro_sup_l	wrist_flex_l	wrist_dev_l
     48.13500000	     -2.49697175	     -3.74833382	      7.69436481	      1.08917927	      0.92401996	      0.43750809	      0.17639956	     -0.89618965	    -14.39228491	     24.13436959	     24.13436959	     18.48390145	     -0.28582916	     -4.81232415	     23.67716732	     -4.31315930	      0.67159640	     27.25198331	     27.25198331	      8.97692815	    -13.45047188	      3.08116019	     -7.97441861	      3.02518534	      3.67631651	     12.69578192	    -18.00593510	     11.17829351	     67.91304817	     44.52477342	      0.00000000	      0.00000000	      1.49522404	     -9.04013506	    -16.81232880	     33.73079211	     45.55173872	      0.00000000	      0.00000000
     48.14885714	     -2.55796827	     -3.65883107	      7.41684968	      1.08938621	      0.92479950	      0.43473770	      1.32720841	     -1.67275258	    -14.19183658	     26.86984509	     26.86984509	     17.82258760	     -0.71467349	     -5.97354719	     23.09342325	     -4.14789592	      0.36441966	     26.97684248	     26.97684248	      9.32272570	    -13.40876336	      3.12372295	     -7.94298055	      2.90840060	      3.87006768	     11.73736137	    -17.92609434	     11.36969641	     65.98285911	     44.58715204	      0.00000000	      0.00000000	      1.93492553	     -9.02495764	    -16.66629693	     34.86548852	     45.54587396	      0.00000000	      0.00000000
     48.16271429	     -2.60524683	     -3.62429676	      7.13629227	      1.08946708	      0.92552803	      0.43205415	      2.62709732	     -2.40601083	    -13.88662038	     29.81456629	     29.81456629	     16.82944850	     -1.25186888	     -7.45933206	     22.50579521	     -4.03415853	      0.11492082	     26.69952061	     26.69952061	      9.64515306	    -13.41753337	      3.14315340	     -7.90324465	      2.83011651	      3.93320406	     10.92126202	    -17.70731635	     11.46351312	     63.75717434	     44.66472439	      0.00000000	      0.00000000	      2.19927530	     -9.07884267	    -16.43462360	     36.17819676	     45.52991104	      0.00000000	      0.00000000
     48.17657143	     -2.56398268	     -3.63589067	      6.88904270	      1.08940966	      0.92632953	      0.42947159	      3.78210522	     -2.98813395	    -13.45393568	     32.35688078	     32.35688078	     13.89517096	     -2.96042728	    -13.55888117	     21.86412102	     -3.96278124	     -0.05700340	     26.45752666	     26.45752666	      9.90223062	    -13.49759159	      3.22937050	     -7.93580591	      2.79779395	      2.63492080	     12.07759458	    -16.03402075	     11.16575903	     57.44685281	     44.93726764	      0.00000000	      0.00000000	      0.53241723	     -9.77139821	    -14.77293655	     40.50915841	     45.38377171	      0.00000000	      0.00000000
     48.19042857	     -2.47155458	     -3.54951151	      6.58830459	      1.08909093	      0.92691788	      0.42692485	      5.37137503	     -3.83223785	    -13.02405822	     35.98270253	     35.98270253	     12.67540159	     -3.63976965	    -14.36909708	     21.18123127	     -3.85133591	     -0.45308620	     26.24414191	     26.24414191	     10.19793553	    -13.34024554	      3.09895782	     -8.17798376	      2.74725534	      2.73823031	     11.07448656	    -16.21176494	     11.37628790	     56.48473215	     44.96079023	      0.00000000	      0.00000000	      1.18009468	     -9.85460929	    -14.69682653	     41.18925833	     45.39412045	      0.00000000	      0.00000000
     48.20428571	     -2.46877658	     -3.47517540	      6.23910873	      1.08859169	      0.92722825	      0.42455296	      7.19937506	     -4.62977985	    -12.42308818	     39.69570467	     39.69570467	     11.10846710	     -4.48487900	    -15.18092610	     20.63230355	     -3.74679223	     -0.83245537	     26.08503150	     26.08503150	     10.52089800	    -13.24786733	      2.91564636	     -8.29963642	      2.70461103	      2.82994147	     10.09392348	    -16.34674834	     11.42241674	     55.11416428	     45.00566765	      0.00000000	      0.00000000	      1.75269958	     -9.98824261	    -14.55601931	     42.06808521	     45.39813480	      0.00000000	      0.00000000
     48.21814286	     -2.50901262	     -3.51980983	      5.88455699	      1.08796056	      0.92741392	      0.42249444	      9.06080669	     -5.13025891	    -11.61114063	     43.05256777	     43.05256777	      8.11174176	     -6.60011577	    -18.85534775	     20.18663321	     -3.79058158	     -1.20831078	     25.95331359	     25.95331359	     10.66583768	    -13.20947019	      2.32095931	     -8.31336119	      2.70547471	      2.27254465	     10.53400819	    -15.15835914	     10.06385867	     49.71781011	     45.27882802	      0.00000000	      0.00000000	      0.83443687	    -10.79892071	    -12.62174852	     45.51081441	     45.31184438	      0.00000000	      0.00000000
     48.23200000	     -2.43067652	     -3.40607322	      5.51908916	      1.08717542	      0.92761273	      0.42034936	     10.98357589	     -5.88488614	    -10.92337913	     46.81119530	     46.81119530	      6.27504762	     -7.38562047	    -18.86651072	     19.61909921	     -3.67773981	     -1.66243220	     25.87060751	     25.87060751	     10.99625539	    -13.07973363	      2.13272623	     -8.56973833	      2.64750898	      2.20467419	      9.61319309	    -15.35573296	     10.01371400	     48.76944957	     45.31175482	      0.00000000	      0.00000000	      1.44858829	    -11.03163218	    -12.58214107	     46.11973556	     45.32972307	      0.00000000	      0.00000000
     48.24585714	     -2.38956170	     -3.32836953	      5.14218746	      1.08623504	      0.92770288	      0.41834857	     12.97070290	     -6.50968693	    -10.16816157	     50.40067864	     50.40067864	      4.33494518	     -8.27214826	    -18.54859674	     19.14602837	     -3.61085062	     -2.12899301	     25.84889260	     25.84889260	     11.30754598	    -12.93480090	      1.91638515	     -8.77316215	      2.65689501	      2.15858133	      8.74254994	    -15.54186366	      9.82041180	     47.54630660	     45.36175713	      0.00000000	      0.00000000	      2.02380967	    -11.29059003	    -12.46784789	     46.87500138	     45.34049442	      0.00000000	      0.00000000
     48.25971429	     -2.36553916	     -3.41934611	      4.76828705	      1.08524033	      0.92773802	      0.41679706	     15.03054091	     -6.74481367	     -9.26039645	     53.88743361	     53.88743361	      3.09726770	     -8.90710897	    -15.87702420	     18.75706395	     -3.80825970	     -2.72639406	     25.89745541	     25.89745541	     11.66129219	    -12.44311583	      1.31035848	     -8.87652363	      2.71320326	      1.80808480	      9.12681371	    -14.49144853	      7.13818384	     42.53724732	     45.68112897	      0.00000000	      0.00000000	      1.60355125	    -12.14654022	    -10.65214469	     49.47465352	     45.27724852	      0.00000000	      0.00000000
     48.27357143	     -2.32903490	     -3.33973322	      4.39455891	      1.08415772	      0.92788530	      0.41508949	     16.92017682	     -7.24206754	     -8.59151819	     56.89047988	     56.89047988	      1.32568528	     -9.49488392	    -15.22936989	     18.27805624	     -3.72741609	     -3.14134253	     25.82478290	     25.82478290	     11.96888401	    -12.40203498	      1.18884325	     -9.06469619	      2.69785702	      1.65291249	      8.26906255	    -14.78895129	      6.92027885	     41.78542568	     45.71447110	      0.00000000	      0.00000000	      2.18416666	    -12.44944929	    -10.66768111	     49.92819755	     45.30050410	      0.00000000	      0.00000000
     48.28742857	     -2.37478182	     -3.41887116	      3.98755951	      1.08296322	      0.92797539	      0.41374611	     18.85778480	     -7.38221915	     -7.83877509	     59.55083142	     59.55083142	      0.07941984	    -10.09720509	    -13.43263957	     17.93323773	     -3.86455532	     -3.60414194	     25.79042864	     25.79042864	     12.29835856	    -12.16137569	      0.99253821	     -9.12660176	      2.81394485	      1.81066709	      7.41508618	    -15.02362404	      6.27069761	     40.26975863	     45.79933780	      0.00000000	      0.00000000	      2.75998249	    -12.67174429	    -10.40175847	     50.75493943	     45.31384722	      0.00000000	      0.00000000
     48.30128571	     -2.30443990	     -3.45374580	      3.62335923	      1.08176204	      0.92836515	      0.41240397	     20.67153293	     -7.66066740	     -7.33701078	     62.11779908	     62.11779908	      0.87121822	     -9.04007118	     -6.86442124	     17.43597373	     -3.95204664	     -4.07645881	     25.71716378	     25.71716378	     12.66491458	    -11.86901069	      0.91987039	     -9.33286789	      2.90899510	      1.50790842	      7.59333384	    -14.35453149	      2.49537311	     36.84794277	     46.11755479	      0.00000000	      0.00000000	      2.87717029	    -13.45633785	     -8.85322404	     51.86172000	     45.33696426	      0.00000000	      0.00000000
     48.31514286	     -2.28343871	     -3.49585204	      3.21798176	      1.08051822	      0.92879362	      0.41127822	     22.20365011	     -7.80678397	     -6.85017413	     63.68495889	     63.68495889	     -0.11054632	     -9.40256257	     -6.52553486	     16.93478304	     -4.01640968	     -4.46419547	     25.52415433	     25.52415433	     12.89294915	    -11.80834808	      0.87799065	     -9.52073687	      3.00119046	      1.32086180	      6.85508740	    -14.72796781	      2.32341502	     36.34105271	     46.14013925	      0.00000000	      0.00000000	      3.40691314	    -13.81796755	     -8.95218331	     52.16514315	     45.36364675	      0.00000000	      0.00000000
     48.32900000	     -2.31405322	     -3.60285189	      2.79617078	      1.07923429	      0.92928491	      0.41039643	     23.66700169	     -7.80602852	     -6.43334033	     64.74642162	     64.74642162	     -0.68936747	     -9.77429437	     -5.85393032	     16.46426679	     -4.17341745	     -4.90134474	     25.27694504	     25.27694504	     13.15410322	    -11.63455794	      0.81367023	     -9.58750632	      3.17031219	      1.39057882	      6.11501560	    -15.07937623	      2.02819387	     35.55995687	     46.17982420	      0.00000000	      0.00000000	      3.92298785	    -13.98105230	     -8.91090828	     52.60553477	     45.38390508	      0.00000000	      0.00000000
     48.34285714	     -2.29446771	     -3.81533105	      2.41378734	      1.07787902	      0.92996779	      0.40963521	     24.86012739	     -7.75250959	     -6.28857760	     65.16626757	     65.16626757	     -0.99608963	     -9.80734394	     -5.57881912	     15.95299790	     -4.41550043	     -5.17385060	     25.02076263	     25.02076263	     13.35593304	    -11.58407993	      0.81164410	     -9.81056836	      3.45022598	      1.12302584	      5.61227190	    -15.51202008	      1.85144946	     35.12511153	     46.20279281	      0.00000000	      0.00000000	      4.29204160	    -14.35806845	     -8.94914562	     52.82051062	     45.39858308	      0.00000000	      0.00000000
